<svg width="34" height="34" viewBox="0 0 34 34" fill="none" xmlns="http://www.w3.org/2000/svg">
<rect x="1.35132" y="1.29492" width="31.8" height="31.8" stroke="#C6CBCD"/>
<path d="M23.5589 9.20508H10.1025C9.87945 9.20508 9.66553 9.29369 9.50781 9.45141C9.35008 9.60913 9.26147 9.82305 9.26147 10.0461V23.5025C9.26147 23.7256 9.35008 23.9395 9.50781 24.0972C9.66553 24.2549 9.87945 24.3435 10.1025 24.3435H23.5589C23.782 24.3435 23.9959 24.2549 24.1536 24.0972C24.3113 23.9395 24.3999 23.7256 24.3999 23.5025V10.0461C24.3999 9.82305 24.3113 9.60913 24.1536 9.45141C23.9959 9.29369 23.782 9.20508 23.5589 9.20508ZM13.7517 22.1039H11.5045V14.8795H13.7517V22.1039ZM12.6281 13.893C12.2828 13.893 11.9517 13.7558 11.7075 13.5116C11.4634 13.2675 11.3262 12.9363 11.3262 12.591C11.3262 12.2458 11.4634 11.9146 11.7075 11.6705C11.9517 11.4263 12.2828 11.2891 12.6281 11.2891C12.9734 11.2891 13.3045 11.4263 13.5487 11.6705C13.7928 11.9146 13.93 12.2458 13.93 12.591C13.93 12.9363 13.7928 13.2675 13.5487 13.5116C13.3045 13.7558 12.9734 13.893 12.6281 13.893ZM22.1611 22.1039H19.9164V18.5909C19.9164 17.7533 19.9013 16.6759 18.7491 16.6759C17.5801 16.6759 17.4026 17.5893 17.4026 18.5321V22.1047H15.1596V14.8803H17.3126V15.8677H17.3437C17.6423 15.3 18.3757 14.7012 19.4665 14.7012C21.7406 14.7012 22.1603 16.1965 22.1603 18.1427V22.1039H22.1611Z" fill="#C6CBCD"/>
</svg>
