<svg width="34" height="34" fill="none" xmlns="http://www.w3.org/2000/svg"><path stroke="#C6CBCD" d="M1.351 1.295h31.8v31.8h-31.8z"/><path d="M23.559 9.205H10.102a.841.841 0 0 0-.84.841v13.457a.84.84 0 0 0 .84.84H23.56a.841.841 0 0 0 .84-.84V10.046a.841.841 0 0 0-.84-.84Zm-9.807 12.899h-2.248V14.88h2.248v7.224Zm-1.124-8.211a1.302 1.302 0 1 1 0-2.604 1.302 1.302 0 0 1 0 2.604Zm9.533 8.21h-2.245v-3.512c0-.838-.015-1.915-1.167-1.915-1.169 0-1.346.913-1.346 1.856v3.573H15.16V14.88h2.153v.988h.03c.3-.568 1.033-1.167 2.123-1.167 2.275 0 2.694 1.495 2.694 3.442v3.96h.001Z" fill="#C6CBCD"/></svg>