<svg width="34" height="34" viewBox="0 0 34 34" fill="none" xmlns="http://www.w3.org/2000/svg">
<rect x="1.34619" y="1.29492" width="31.8" height="31.8" stroke="#C6CBCD"></rect>
<path d="M23.2452 13.3917C23.2561 13.5389 23.2561 13.6853 23.2561 13.8316C23.2561 18.3101 19.8475 23.4706 13.618 23.4706C11.6988 23.4706 9.9158 22.9147 8.41541 21.9492C8.6879 21.9803 8.9503 21.9912 9.23372 21.9912C10.7585 21.9949 12.2401 21.485 13.4397 20.5438C12.7327 20.531 12.0474 20.2978 11.4795 19.8767C10.9115 19.4555 10.4892 18.8676 10.2715 18.1948C10.481 18.226 10.6912 18.247 10.9116 18.247C11.2152 18.247 11.5205 18.2049 11.8039 18.1318C11.0367 17.9769 10.3468 17.561 9.85156 16.9549C9.35631 16.3488 9.08629 15.5899 9.08738 14.8072V14.7651C9.53902 15.0166 10.063 15.1739 10.6181 15.1949C10.153 14.8859 9.77174 14.4666 9.50818 13.9744C9.24462 13.4822 9.10699 12.9324 9.10757 12.3741C9.10757 11.745 9.27493 11.1681 9.56845 10.6651C10.4197 11.7122 11.4814 12.5689 12.6847 13.1795C13.8881 13.7902 15.2063 14.1413 16.554 14.2101C16.5019 13.9578 16.4699 13.6962 16.4699 13.4338C16.4697 12.9889 16.5572 12.5482 16.7273 12.1371C16.8975 11.726 17.147 11.3525 17.4616 11.0379C17.7763 10.7233 18.1498 10.4737 18.5609 10.3036C18.972 10.1334 19.4126 10.0459 19.8576 10.0461C20.8331 10.0461 21.7137 10.4549 22.3327 11.1159C23.0911 10.9693 23.8184 10.6924 24.4824 10.2976C24.2296 11.0804 23.7 11.7443 22.9929 12.1647C23.6655 12.088 24.3229 11.9111 24.9432 11.6399C24.4799 12.3153 23.9059 12.9076 23.2452 13.3917Z" fill="#C6CBCD"></path>
</svg>
