<svg width="34" height="34" fill="none" xmlns="http://www.w3.org/2000/svg"><path stroke="#C6CBCD" d="M1.346 1.295h31.8v31.8h-31.8z"/><path d="M23.245 13.392c.011.147.011.293.011.44 0 4.478-3.409 9.639-9.638 9.639a9.572 9.572 0 0 1-5.203-1.522c.273.031.535.042.819.042a6.787 6.787 0 0 0 4.206-1.447 3.394 3.394 0 0 1-3.168-2.35 3.607 3.607 0 0 0 1.532-.063 3.387 3.387 0 0 1-2.717-3.324v-.042c.452.252.976.409 1.531.43a3.382 3.382 0 0 1-1.51-2.82c0-.63.167-1.207.46-1.71a9.635 9.635 0 0 0 6.986 3.545 3.853 3.853 0 0 1-.084-.776 3.388 3.388 0 0 1 5.863-2.318 6.691 6.691 0 0 0 2.15-.818 3.381 3.381 0 0 1-1.49 1.867 6.789 6.789 0 0 0 1.95-.525 7.27 7.27 0 0 1-1.698 1.752Z" fill="#C6CBCD"/></svg>